<?xml version="1.0" encoding="UTF-8" standalone="no"?>
<!-- Created with Inkscape (http://www.inkscape.org/) -->

<svg
   xmlns:dc="http://purl.org/dc/elements/1.1/"
   xmlns:cc="http://creativecommons.org/ns#"
   xmlns:rdf="http://www.w3.org/1999/02/22-rdf-syntax-ns#"
   xmlns:svg="http://www.w3.org/2000/svg"
   xmlns="http://www.w3.org/2000/svg"
   xmlns:sodipodi="http://sodipodi.sourceforge.net/DTD/sodipodi-0.dtd"
   xmlns:inkscape="http://www.inkscape.org/namespaces/inkscape"
   width="131.23331mm"
   height="127.95447mm"
   viewBox="0 0 131.2333 127.95447"
   version="1.1"
   id="svg8"
   inkscape:version="0.92.4 (5da689c313, 2019-01-14)"
   sodipodi:docname="github-brands.svg">
  <defs
     id="defs2" />
  <sodipodi:namedview
     id="base"
     pagecolor="#ffffff"
     bordercolor="#666666"
     borderopacity="1.0"
     inkscape:pageopacity="0.0"
     inkscape:pageshadow="2"
     inkscape:zoom="0.35"
     inkscape:cx="234.00003"
     inkscape:cy="-43.339123"
     inkscape:document-units="mm"
     inkscape:current-layer="layer1"
     showgrid="false"
     inkscape:window-width="1842"
     inkscape:window-height="1171"
     inkscape:window-x="69"
     inkscape:window-y="1341"
     inkscape:window-maximized="1" />
  <metadata
     id="metadata5">
    <rdf:RDF>
      <cc:Work
         rdf:about="">
        <dc:format>image/svg+xml</dc:format>
        <dc:type
           rdf:resource="http://purl.org/dc/dcmitype/StillImage" />
        <dc:title></dc:title>
      </cc:Work>
    </rdf:RDF>
  </metadata>
  <g
     inkscape:label="Ebene 1"
     inkscape:groupmode="layer"
     id="layer1"
     transform="translate(159.05239,-9.4120535)">
    <path
       id="path826"
       d="m -115.15802,112.44081 c 0,0.52916 -0.60854,0.9525 -1.37583,0.9525 -0.87312,0.0794 -1.48167,-0.34396 -1.48167,-0.9525 0,-0.52917 0.60855,-0.9525 1.37584,-0.9525 0.79375,-0.0794 1.48166,0.34396 1.48166,0.9525 z m -8.22854,-1.19063 c -0.18521,0.52917 0.34396,1.13771 1.13771,1.29646 0.68792,0.26458 1.48167,0 1.64042,-0.52917 0.15875,-0.52916 -0.34396,-1.1377 -1.13771,-1.37583 -0.68792,-0.18521 -1.45521,0.0794 -1.64042,0.60854 z m 11.69459,-0.44979 c -0.7673,0.18521 -1.29646,0.68792 -1.21709,1.29646 0.0794,0.52917 0.76729,0.87312 1.56104,0.68792 0.7673,-0.18521 1.29646,-0.68792 1.21709,-1.21709 -0.0794,-0.50271 -0.79375,-0.84666 -1.56104,-0.76729 z M -94.282392,9.4120535 c -36.697708,0 -64.769998,27.8606245 -64.769998,64.5583325 0,29.342294 18.46792,54.451254 44.84687,63.288334 3.38667,0.60855 4.5773,-1.48166 4.5773,-3.20145 0,-1.64042 -0.0794,-10.68917 -0.0794,-16.24542 0,0 -18.52084,3.96875 -22.41022,-7.88458 0,0 -3.01625,-7.69938 -7.35541,-9.68375 0,0 -6.05896,-4.153965 0.42333,-4.074595 0,0 6.58812,0.52917 10.21292,6.826255 5.79437,10.21292 15.50458,7.27604 19.28813,5.52979 0.60854,-4.23333 2.32833,-7.1702 4.23333,-8.916455 -14.79021,-1.64042 -29.71271,-3.78355 -29.71271,-29.236462 0,-7.276042 2.01083,-10.927292 6.24416,-15.583959 -0.68791,-1.719791 -2.93687,-8.810625 0.68792,-17.965208 5.52979,-1.719792 18.25625,7.14375 18.25625,7.14375 5.29167,-1.481667 10.980211,-2.248958 16.615836,-2.248958 5.635625,0 11.324167,0.767291 16.615834,2.248958 0,0 12.726458,-8.89 18.25625,-7.14375 3.624791,9.181042 1.375833,16.245417 0.687916,17.965208 4.233334,4.683125 6.82625,8.334375 6.82625,15.583959 0,25.532292 -15.583958,27.569582 -30.374166,29.236462 2.434166,2.090205 4.497916,6.058955 4.497916,12.276665 0,8.91646 -0.07937,19.94959 -0.07937,22.11917 0,1.71979 1.217084,3.81 4.577292,3.20146 26.458333,-8.78417 44.397083,-33.89313 44.397083,-63.235424 0,-36.697708 -29.765625,-64.5583325 -66.463333,-64.5583325 z M -133.33489,100.66685 c -0.34396,0.26458 -0.26458,0.87312 0.18521,1.37583 0.42333,0.42334 1.03187,0.60854 1.37583,0.26459 0.34396,-0.26459 0.26458,-0.87313 -0.18521,-1.37584 -0.42333,-0.42333 -1.03187,-0.60854 -1.37583,-0.26458 z m -2.8575,-2.143135 c -0.18521,0.34396 0.0794,0.7673 0.60854,1.03188 0.42333,0.26458 0.9525,0.18521 1.13771,-0.18521 0.18521,-0.34396 -0.0794,-0.76729 -0.60854,-1.03187 -0.52917,-0.15875 -0.9525,-0.0794 -1.13771,0.1852 z m 8.5725,9.419175 c -0.42333,0.34396 -0.26458,1.13771 0.34396,1.64042 0.60854,0.60854 1.37583,0.68791 1.71979,0.26458 0.34396,-0.34396 0.18521,-1.13771 -0.34396,-1.64042 -0.58208,-0.60854 -1.37583,-0.68791 -1.71979,-0.26458 z m -3.01625,-3.88937 c -0.42333,0.26458 -0.42333,0.9525 0,1.56104 0.42333,0.60854 1.13771,0.87312 1.48167,0.60854 0.42333,-0.34396 0.42333,-1.03188 0,-1.64042 -0.37042,-0.60854 -1.05834,-0.87312 -1.48167,-0.52916 z"
       inkscape:connector-curvature="0"
       style="fill:#464646;stroke-width:0.26458332;fill-opacity:1" />
  </g>
</svg>
