<?xml version="1.0" encoding="UTF-8" standalone="no"?>
<!-- Created with Inkscape (http://www.inkscape.org/) -->

<svg
   xmlns:dc="http://purl.org/dc/elements/1.1/"
   xmlns:cc="http://creativecommons.org/ns#"
   xmlns:rdf="http://www.w3.org/1999/02/22-rdf-syntax-ns#"
   xmlns:svg="http://www.w3.org/2000/svg"
   xmlns="http://www.w3.org/2000/svg"
   xmlns:sodipodi="http://sodipodi.sourceforge.net/DTD/sodipodi-0.dtd"
   xmlns:inkscape="http://www.inkscape.org/namespaces/inkscape"
   width="118.59948mm"
   height="118.57303mm"
   viewBox="0 0 118.59947 118.57303"
   version="1.1"
   id="svg8"
   inkscape:version="0.92.4 (5da689c313, 2019-01-14)"
   sodipodi:docname="instagram-brands.svg">
  <defs
     id="defs2" />
  <sodipodi:namedview
     id="base"
     pagecolor="#ffffff"
     bordercolor="#666666"
     borderopacity="1.0"
     inkscape:pageopacity="0.0"
     inkscape:pageshadow="2"
     inkscape:zoom="0.35"
     inkscape:cx="318.12503"
     inkscape:cy="246.45019"
     inkscape:document-units="mm"
     inkscape:current-layer="layer1"
     showgrid="false"
     inkscape:window-width="1842"
     inkscape:window-height="1171"
     inkscape:window-x="69"
     inkscape:window-y="1341"
     inkscape:window-maximized="1" />
  <metadata
     id="metadata5">
    <rdf:RDF>
      <cc:Work
         rdf:about="">
        <dc:format>image/svg+xml</dc:format>
        <dc:type
           rdf:resource="http://purl.org/dc/dcmitype/StillImage" />
        <dc:title></dc:title>
      </cc:Work>
    </rdf:RDF>
  </metadata>
  <g
     inkscape:label="Ebene 1"
     inkscape:groupmode="layer"
     id="layer1"
     transform="translate(181.31046,-95.466914)">
    <path
       id="path837"
       d="m -121.99749,124.3528 c -16.82751,0 -30.40063,13.57312 -30.40063,30.40062 0,16.8275 13.57312,30.40063 30.40063,30.40063 16.8275,0 30.40062,-13.57313 30.40062,-30.40063 0,-16.8275 -13.57312,-30.40062 -30.40062,-30.40062 z m 0,50.165 c -10.87438,0 -19.76438,-8.86354 -19.76438,-19.76438 0,-10.90083 8.86354,-19.76437 19.76438,-19.76437 10.90083,0 19.76437,8.86354 19.76437,19.76437 0,10.90084 -8.89,19.76438 -19.76437,19.76438 z m 38.734995,-51.40854 c 0,3.94229 -3.175,7.09083 -7.090833,7.09083 -3.942292,0 -7.090834,-3.175 -7.090834,-7.09083 0,-3.91584 3.175,-7.09084 7.090834,-7.09084 3.915833,0 7.090833,3.175 7.090833,7.09084 z m 20.134792,7.19666 c -0.449792,-9.49854 -2.619375,-17.91229 -9.577917,-24.84437 -6.932083,-6.932084 -15.345833,-9.101667 -24.844375,-9.577917 -9.789585,-0.555625 -39.131875,-0.555625 -48.921455,0 -9.47209,0.449791 -17.88584,2.619375 -24.84438,9.551457 -6.95854,6.93208 -9.10167,15.34583 -9.57791,24.84438 -0.55563,9.78958 -0.55563,39.13187 0,48.92146 0.44979,9.49854 2.61937,17.91229 9.57791,24.84437 6.95854,6.93209 15.34584,9.10167 24.84438,9.57792 9.78958,0.55563 39.13187,0.55563 48.921455,0 9.498542,-0.44979 17.912292,-2.61937 24.844375,-9.57792 6.932083,-6.93208 9.101667,-15.34583 9.577917,-24.84437 0.555625,-9.78959 0.555625,-39.10542 0,-48.89501 z m -12.647084,59.39897 c -2.06375,5.18583 -6.058958,9.18104 -11.27125,11.27125 -7.805208,3.09562 -26.326043,2.38125 -34.951453,2.38125 -8.62542,0 -27.17271,0.68791 -34.95146,-2.38125 -5.18584,-2.06375 -9.18105,-6.05896 -11.27125,-11.27125 -3.09563,-7.80521 -2.38125,-26.32605 -2.38125,-34.95147 0,-8.62541 -0.68792,-27.1727 2.38125,-34.95145 2.06375,-5.18584 6.05895,-9.18105 11.27125,-11.27125 7.8052,-3.09563 26.32604,-2.38125 34.95146,-2.38125 8.62541,0 27.172703,-0.68792 34.951453,2.38125 5.185834,2.06375 9.181042,6.05895 11.27125,11.27125 3.095625,7.8052 2.38125,26.32604 2.38125,34.95145 0,8.62542 0.714375,27.17272 -2.38125,34.95147 z"
       inkscape:connector-curvature="0"
       style="fill:#464646;fill-opacity:1;stroke-width:0.26458332" />
  </g>
</svg>
